<?xml version="1.0" encoding="utf-8"?>
<!-- Generator: Adobe Illustrator 22.0.1, SVG Export Plug-In . SVG Version: 6.00 Build 0)  -->
<svg version="1.1" id="Layer_1" xmlns="http://www.w3.org/2000/svg" xmlns:xlink="http://www.w3.org/1999/xlink" x="0px" y="0px"
	 viewBox="0 0 1920 1080" style="enable-background:new 0 0 1920 1080;" xml:space="preserve">
<style type="text/css">
	.st0{fill:#F1AD32;}
	.st1{fill:#FCB736;}
	.st2{fill:#099EE1;}
	.st3{fill:#0B9DE2;}
	.st4{fill:#129FDA;}
</style>
<g>
	<path d="M177.6,411.3c-0.5-9.9-1.2-21.9-1.1-30.7h-0.3c-2.4,8.3-5.4,17.2-9,27l-12.6,34.5h-7l-11.5-33.9c-3.4-10-6.2-19.2-8.2-27.7
		h-0.2c-0.2,8.9-0.7,20.8-1.4,31.5l-1.9,30.5h-8.8l5-71.2h11.7l12.1,34.4c3,8.8,5.4,16.6,7.2,24h0.3c1.8-7.2,4.3-15,7.5-24
		l12.7-34.4h11.7l4.4,71.2h-9L177.6,411.3z"/>
	<path d="M231.1,442.6l-0.7-6.4h-0.3c-2.9,4-8.3,7.6-15.6,7.6c-10.4,0-15.6-7.3-15.6-14.7c0-12.4,11-19.1,30.7-19V409
		c0-4.2-1.2-11.8-11.6-11.8c-4.8,0-9.7,1.5-13.3,3.8l-2.1-6.1c4.2-2.7,10.4-4.5,16.8-4.5c15.6,0,19.4,10.7,19.4,20.9v19.1
		c0,4.4,0.2,8.8,0.8,12.3H231.1z M229.7,416.5c-10.1-0.2-21.7,1.6-21.7,11.5c0,6,4,8.9,8.8,8.9c6.7,0,10.9-4.2,12.4-8.6
		c0.3-1,0.5-2,0.5-3V416.5z"/>
	<path d="M262.9,414.9h0.2c1.3-1.8,3.1-4,4.5-5.8l15-17.6h11.2l-19.7,21l22.5,30.1h-11.3l-17.6-24.5l-4.8,5.3v19.2h-9.2v-75h9.2
		V414.9z"/>
	<path d="M308.4,418.7c0.2,12.6,8.2,17.7,17.5,17.7c6.7,0,10.7-1.2,14.2-2.6l1.6,6.7c-3.3,1.5-8.9,3.2-17,3.2
		c-15.7,0-25.1-10.4-25.1-25.8c0-15.4,9.1-27.6,24-27.6c16.7,0,21.1,14.7,21.1,24.1c0,1.9-0.2,3.4-0.3,4.3H308.4z M335.7,412.1
		c0.1-5.9-2.4-15.1-12.9-15.1c-9.4,0-13.5,8.7-14.3,15.1H335.7z"/>
	<path d="M406.9,442.6l-0.7-6.4h-0.3c-2.9,4-8.3,7.6-15.6,7.6c-10.4,0-15.6-7.3-15.6-14.7c0-12.4,11-19.1,30.7-19V409
		c0-4.2-1.2-11.8-11.6-11.8c-4.8,0-9.7,1.5-13.3,3.8l-2.1-6.1c4.2-2.7,10.4-4.5,16.8-4.5c15.6,0,19.4,10.7,19.4,20.9v19.1
		c0,4.4,0.2,8.8,0.8,12.3H406.9z M405.5,416.5c-10.1-0.2-21.7,1.6-21.7,11.5c0,6,4,8.9,8.8,8.9c6.7,0,10.9-4.2,12.4-8.6
		c0.3-1,0.5-2,0.5-3V416.5z"/>
</g>
<path class="st0" d="M1382.6,758.5c0,0,29.8-84.8,233.8-68.8c204,16,224.6,25.2,224.6,25.2s-311.7,270.4-458.4,139.8
	c0,0,139.8,27.5,233.8-89.4c0,0-33.1-18.7-91.2-21.9c-23.6-1.3-47.2,0.9-70.3,5.9C1436.5,753.3,1407.8,758.5,1382.6,758.5z"/>
<path class="st0" d="M1342.7,680.6c0,0,68,41.2,198.4-84.4s124.6-162,124.6-162s-343.8,20.6-377.1,180.6c0,0,80.1-97.4,210-70.3
	c0,0-12.1,31.4-50,66.2c-15.4,14.1-32.8,25.9-51.3,35.4C1382.4,653.8,1359.9,666.4,1342.7,680.6z"/>
<path class="st0" d="M1158,481.2c0,0-39-52.7,61.9-151.3c100.8-98.5,139.8-128.3,139.8-128.3S1346,384.9,1302.4,472
	c0,0-9.2,18.3-27.5,34.4s-20.6,27.5-20.6,27.5s-11.5-22.9,13.8-105.4s9.2-96.3-29.8-50.4C1199.3,423.9,1171.8,449.1,1158,481.2z"/>
<path class="st0" d="M1059.5,460.5c0,0,77.9-66.5-39-293.4c0,0-116.9,201.7-41.3,284.2c0,0,16-112.3,39-137.5
	c0,0,32.1,9.2,36.7,77.9C1054.9,391.8,1054.9,456,1059.5,460.5z"/>
<path class="st1" d="M1288.7,843.3c0,0,48.1-208.6-100.8-304.8c0,0-126.1-107.7-275-32.1c0,0-36.7,25.2-55,45.8
	c-18.3,20.6-20.6,22.9-29.8,22.9c0,0-13.8,27.5-11.5,32.1c2.3,4.6,18.3,13.8,41.3-9.2c22.9-22.9,94-94,181.1-68.8
	s222.3,73.3,176.5,300.2C1215.3,829.5,1238.2,861.6,1288.7,843.3z"/>
<path class="st2" d="M342.1,582c0,0,32.1-20.6-43.5-16c-75.6,4.6-160.4,66.5-181.1,197.1s68.8,110,68.8,110s80.2,0,174.2-185.6
	s126.1-259,160.4-300.2s82.5-94,114.6-87.1c0,0,13.8,11.5-6.9,29.8c0,0-9.2,0-9.2-11.5c0,0-80.2,13.8-116.9,185.6
	c0,0-20.6,149-22.9,162.7c0,0,75.6-158.1,165-240.6s162.7-121.5,213.1-135.2c0,0,27.5-6.9,27.5,9.2s-20.6,20.6-20.6,20.6
	s2.3-18.3-16-11.5c-18.3,6.9-183.3,77.9-231.5,217.7c0,0-77.9,160.4-41.3,284.2c36.7,123.8,160.4,176.5,355.2-6.9l9.2,6.9
	c0,0-119.2,128.3-254.4,130.6c0,0-242.9-59.6-100.8-407.9c0,0-66.5,55-160.4,295.6l-16-6.9c0,0,36.7-135.2,41.3-185.6
	c4.6-50.4,27.5-121.5,32.1-144.4S415.5,632.4,349,744.7c0,0-100.8,178.8-204,146.7s-29.8-204-29.8-204s55-112.3,176.5-137.5
	c0,0,75.6-13.8,89.4,13.8c13.8,27.5-36.7,27.5-36.7,27.5L342.1,582z"/>
<path class="st0" d="M792.5,413.6c0,0,41.3,6.9,52.7,45.8c11.5,39,14.9,44.7,14.9,44.7s41.3-36.7-20.6-119.2s-96.3-112.3-96.3-112.3
	s-27.5,197.1,57.3,247.5C800.5,520.1,782.2,458.2,792.5,413.6z"/>
<path class="st3" d="M676.8,604.9c0,0-13.8,20.6,0,25.2c13.8,4.6,25.2,0,25.2-13.8C702,602.6,692.8,591.2,676.8,604.9z"/>
<path class="st4" d="M1213,657.6c0,0-34.4,6.9-64.2,61.9c-29.8,55-55,57.3-55,57.3s-27.5,11.5-25.2-29.8c0,0-2.3-27.5,20.6-48.1
	s112.3-105.4,132.9-146.7c20.6-41.3,82.5-119.2,55-185.6c0,0-34.4-27.5-137.5,158.1c0,0-64.2,123.8-94,197.1c0,0-11.5,32.1-57.3,55
	c0,0-27.5,13.8-22.9-34.4c0,0,4.6-36.7,32.1-59.6c0,0,27.5-22.9,25.2-6.9c-2.3,16-9.2,29.8-9.2,29.8l9.2,9.2
	c0,0,41.3-27.5,22.9-50.4c0,0-18.3-27.5-71,13.8c0,0-16,16-34.4,50.4c0,0-11.5,25.2-36.7,41.3c0,0-16,13.8-9.2-9.2
	c6.9-22.9,16-52.7,16-52.7s6.9-22.9,22.9-20.6c0,0,6.9-13.8-6.9-29.8c0,0-16-4.6-20.6,4.6c0,0-29.8-18.3-64.2,11.5
	c0,0-27.5,22.9-50.4,64.2c0,0-6.9,16-29.8,34.4c0,0-16,11.5-9.2-6.9c6.9-18.3,11.5-34.4,18.3-45.8c0,0,16-20.6-2.3-32.1
	c-18.3-11.5-22.9-9.2-22.9-9.2s6.9-25.2,0-36.7c0,0-13.8-11.5-27.5,0c-13.8,11.5-6.9,32.1,4.6,41.3c0,0-4.6,32.1-55,77.9
	c0,0-18.3,18.3-16,2.3c2.3-16,18.3-68.8,18.3-68.8s2.3-9.2,20.6-9.2c0,0,6.9-16-6.9-29.8c-13.8-13.8-32.1,18.3-36.7,32.1
	c-4.6,13.8-41.3,98.5-16,110c25.2,11.5,59.6-36.7,80.2-64.2c20.6-27.5,25.2-39,25.2-39s4.6-4.6,9.2,0c4.6,4.6,4.6,11.5-2.3,25.2
	s-39,66.5-13.8,80.2s55-32.1,55-32.1s-2.3,34.4,20.6,32.1c22.9-2.3,36.7-9.2,50.4-22.9c13.8-13.8,9.2,2.3,9.2,2.3
	s-2.3,25.2,18.3,22.9s52.7-41.3,52.7-41.3s0,41.3,29.8,41.3c29.8,0,50.4-13.8,68.8-36.7c0,0,6.9-6.9,6.9,0s4.6,34.4,32.1,34.4
	c27.5,0,48.1-16,66.5-36.7c0,0,0,39,39,39c0,0,27.5,0,45.8-22.9l2.3-29.8c0,0-20.6,29.8-41.3,27.5c-20.6-2.3-16-20.6-16-20.6
	s50.4-22.9,59.6-36.7C1238.2,705.8,1268,646.2,1213,657.6z M1171.8,506.4c22.9-43.5,68.8-116.9,82.5-116.9s-18.3,112.3-59.6,165
	s-80.2,105.4-98.5,114.6C1096.2,669.1,1148.9,549.9,1171.8,506.4z M862.4,747c0,0-20.6,32.1-45.8,27.5c0,0-13.8-4.6,4.6-43.5
	s50.4-66.5,64.2-57.3C885.3,673.7,905.9,689.7,862.4,747z M1215.3,705.8c-9.2,6.9-22.9,20.6-45.8,29.8c0,0,6.9-39,36.7-59.6
	C1236,655.3,1224.5,698.9,1215.3,705.8z"/>
</svg>
